<svg xmlns="http://www.w3.org/2000/svg" viewBox="0 0 297.73 279.67"><defs><style>.cls-1{fill:#39435a;}.cls-2{fill:#2c374c;}.cls-3{fill:#435f94;}.cls-4{fill:#3b76bb;}.cls-5{fill:#76c7c9;}</style></defs><title>Asset 3</title><g id="Layer_2" data-name="Layer 2"><g id="Ebene_1" data-name="Ebene 1"><path class="cls-1" d="M186.07,10.48,254.7,129.36a20.91,20.91,0,0,1,0,20.95L186.07,269.19a21,21,0,0,1-18.15,10.48h40.22a21,21,0,0,0,18.15-10.48l68.64-118.88a21,21,0,0,0,0-20.95L226.29,10.48A20.94,20.94,0,0,0,208.14,0H167.92A20.94,20.94,0,0,1,186.07,10.48Z"/><path class="cls-2" d="M186.07,10.48l3.06,5.3a122.33,122.33,0,0,1,16.11,1.31A115.16,115.16,0,0,1,235,25.47l-8.66-15A20.94,20.94,0,0,0,208.14,0H167.92A20.94,20.94,0,0,1,186.07,10.48Z"/><path class="cls-1" d="M108.64,10.48l68.64,118.88a21,21,0,0,1,0,20.95L108.64,269.19A21,21,0,0,1,90.5,279.67h40.22a21,21,0,0,0,18.14-10.48L217.5,150.31a21,21,0,0,0,0-20.95L148.86,10.48A20.94,20.94,0,0,0,130.72,0H90.5A20.94,20.94,0,0,1,108.64,10.48Z"/><path class="cls-3" d="M111.66,269.19,43,150.31a20.91,20.91,0,0,1,0-20.95L111.66,10.48A21,21,0,0,1,129.81,0H89.59A20.94,20.94,0,0,0,71.44,10.48L2.81,129.36a20.91,20.91,0,0,0,0,20.95L71.44,269.19a21,21,0,0,0,18.15,10.48h40.22A21,21,0,0,1,111.66,269.19Z"/><path class="cls-4" d="M151.32,269.19,82.68,150.31a21,21,0,0,1,0-20.95L151.32,10.48A20.94,20.94,0,0,1,169.46,0H129.24a21,21,0,0,0-18.15,10.48L42.46,129.36a21,21,0,0,0,0,20.95l68.63,118.88a21,21,0,0,0,18.15,10.48h40.22A21,21,0,0,1,151.32,269.19Z"/><path class="cls-5" d="M191.74,269.19,123.1,150.31a21,21,0,0,1,0-20.95L191.74,10.48A20.94,20.94,0,0,1,209.88,0H169.66a21,21,0,0,0-18.15,10.48L82.88,129.36a21,21,0,0,0,0,20.95l68.63,118.88a21,21,0,0,0,18.15,10.48h40.22A21,21,0,0,1,191.74,269.19Z"/></g></g></svg>